<svg width="400" height="176" viewBox="0 0 400 176" fill="none" xmlns="http://www.w3.org/2000/svg">
<path d="M0 44.7471H4.53238V7.79879H0V3.96332H18.0018V7.79879H13.4695V44.7471H18.0018V48.5826H0V44.7471Z" fill="currentColor"/>
<path d="M23.4324 44.7471H27.518V21.0311L23.4324 20.2001V17.0039L35.7528 14.4469V20.6476H36.072C36.3699 19.8379 36.7742 19.0708 37.2849 18.3463C37.8382 17.5792 38.4978 16.9187 39.2638 16.3647C40.0724 15.768 40.9874 15.2993 42.0088 14.9583C43.0302 14.6174 44.2005 14.4469 45.5198 14.4469C49.5628 14.4469 52.4354 15.491 54.1377 17.5792C55.84 19.6248 56.6912 22.7145 56.6912 26.8483V44.7471H60.7767V48.5826H44.4346V44.7471H48.3286V27.2318C48.3286 24.7175 47.8605 22.9063 46.9242 21.7982C45.9879 20.6476 44.4771 20.0723 42.3918 20.0723C41.5832 20.0723 40.7959 20.1788 40.0299 20.3919C39.2638 20.605 38.5616 20.9459 37.9233 21.4147C37.3275 21.8409 36.8381 22.3949 36.455 23.0767C36.072 23.7586 35.8805 24.5683 35.8805 25.5059V44.7471H39.7745V48.5826H23.4324V44.7471Z" fill="currentColor"/>
<path d="M78.7336 49.3497C76.6909 49.3497 74.8396 48.9448 73.1799 48.1351C71.5627 47.3254 70.1583 46.1748 68.9667 44.6832C67.8176 43.149 66.9239 41.3165 66.2856 39.1857C65.6898 37.0123 65.3919 34.5831 65.3919 31.8983C65.3919 29.2135 65.6898 26.8057 66.2856 24.6748C66.9239 22.5014 67.8176 20.6689 68.9667 19.1773C70.1583 17.6432 71.5627 16.4712 73.1799 15.6615C74.8396 14.8518 76.6909 14.4469 78.7336 14.4469C81.1594 14.4469 83.1171 15.0222 84.6066 16.1729C86.0961 17.3235 87.16 18.6446 87.7984 20.1362H88.1176V6.58422L84.0321 5.7532V2.55698L96.4801 0V42.7655L100.566 43.5965V46.7927L88.1176 49.3497V43.5965H87.7984C87.16 45.1307 86.0748 46.4731 84.5427 47.6237C83.0532 48.7744 81.1169 49.3497 78.7336 49.3497ZM81.4786 44.1079C83.266 44.1079 84.8194 43.5752 86.1387 42.5098C87.4579 41.4017 88.1176 39.9102 88.1176 38.035V25.7616C88.1176 23.8864 87.4579 22.4162 86.1387 21.3508C84.8194 20.2427 83.266 19.6887 81.4786 19.6887C79.3507 19.6887 77.6272 20.4132 76.3079 21.8622C74.9886 23.3111 74.3289 25.3567 74.3289 27.9989V35.7977C74.3289 38.4399 74.9886 40.4855 76.3079 41.9344C77.6272 43.3834 79.3507 44.1079 81.4786 44.1079Z" fill="currentColor"/>
<path d="M120.932 49.3497C118.379 49.3497 116.102 48.9235 114.102 48.0712C112.144 47.2189 110.485 46.0256 109.123 44.4914C107.761 42.9146 106.718 41.0608 105.995 38.93C105.314 36.7566 104.973 34.3914 104.973 31.8344C104.973 29.1922 105.335 26.8057 106.059 24.6748C106.825 22.5014 107.889 20.6689 109.25 19.1773C110.612 17.6432 112.229 16.4712 114.102 15.6615C116.017 14.8518 118.124 14.4469 120.422 14.4469C122.72 14.4469 124.784 14.8305 126.614 15.5976C128.486 16.322 130.061 17.3661 131.338 18.7299C132.657 20.0936 133.657 21.7343 134.338 23.652C135.062 25.5272 135.423 27.6367 135.423 29.9806V31.9622H113.974V34.2635C113.974 37.3319 114.762 39.6971 116.336 41.3591C117.953 42.9785 120.06 43.7883 122.656 43.7883C125.039 43.7883 126.954 43.2555 128.401 42.1901C129.848 41.1247 130.912 39.8036 131.593 38.2268L134.721 40.1446C134.338 41.21 133.764 42.2967 132.998 43.4047C132.274 44.4701 131.338 45.4503 130.189 46.3452C129.082 47.2402 127.763 47.9646 126.231 48.5187C124.699 49.0727 122.933 49.3497 120.932 49.3497ZM113.974 28.2546H126.742V27.4236C126.742 24.3552 126.188 22.0966 125.082 20.6476C124.018 19.1986 122.465 18.4742 120.422 18.4742C118.379 18.4742 116.783 19.1986 115.634 20.6476C114.528 22.0539 113.974 24.2913 113.974 27.3597V28.2546Z" fill="currentColor"/>
<path d="M139.87 57.532H143.956V21.0311L139.87 20.2001V17.0039L152.318 14.4469V20.2001H152.638C153.276 18.6659 154.34 17.3235 155.829 16.1729C157.362 15.0222 159.319 14.4469 161.702 14.4469C163.745 14.4469 165.575 14.8518 167.192 15.6615C168.852 16.4712 170.257 17.6432 171.406 19.1773C172.597 20.6689 173.491 22.5014 174.087 24.6748C174.725 26.8057 175.044 29.2135 175.044 31.8983C175.044 34.5831 174.725 37.0123 174.087 39.1857C173.491 41.3165 172.597 43.149 171.406 44.6832C170.257 46.1748 168.852 47.3254 167.192 48.1351C165.575 48.9448 163.745 49.3497 161.702 49.3497C159.277 49.3497 157.319 48.7744 155.829 47.6237C154.34 46.4731 153.276 45.152 152.638 43.6604H152.318V57.532H157.681V61.3675H139.87V57.532ZM158.957 44.1079C161.085 44.1079 162.809 43.3834 164.128 41.9344C165.447 40.4855 166.107 38.4399 166.107 35.7977V27.9989C166.107 25.3567 165.447 23.3111 164.128 21.8622C162.809 20.4132 161.085 19.6887 158.957 19.6887C157.17 19.6887 155.617 20.2427 154.297 21.3508C152.978 22.4162 152.318 23.8864 152.318 25.7616V38.035C152.318 39.9102 152.978 41.4017 154.297 42.5098C155.617 43.5752 157.17 44.1079 158.957 44.1079Z" fill="currentColor"/>
<path d="M196.676 49.3497C194.122 49.3497 191.845 48.9235 189.845 48.0712C187.888 47.2189 186.228 46.0256 184.866 44.4914C183.504 42.9146 182.462 41.0608 181.738 38.93C181.057 36.7566 180.717 34.3914 180.717 31.8344C180.717 29.1922 181.078 26.8057 181.802 24.6748C182.568 22.5014 183.632 20.6689 184.994 19.1773C186.356 17.6432 187.973 16.4712 189.845 15.6615C191.76 14.8518 193.867 14.4469 196.165 14.4469C198.463 14.4469 200.527 14.8305 202.357 15.5976C204.23 16.322 205.804 17.3661 207.081 18.7299C208.4 20.0936 209.4 21.7343 210.081 23.652C210.805 25.5272 211.167 27.6367 211.167 29.9806V31.9622H189.718V34.2635C189.718 37.3319 190.505 39.6971 192.08 41.3591C193.697 42.9785 195.803 43.7883 198.399 43.7883C200.783 43.7883 202.698 43.2555 204.145 42.1901C205.592 41.1247 206.656 39.8036 207.336 38.2268L210.464 40.1446C210.081 41.21 209.507 42.2967 208.741 43.4047C208.017 44.4701 207.081 45.4503 205.932 46.3452C204.826 47.2402 203.506 47.9646 201.974 48.5187C200.442 49.0727 198.676 49.3497 196.676 49.3497ZM189.718 28.2546H202.485V27.4236C202.485 24.3552 201.932 22.0966 200.825 20.6476C199.761 19.1986 198.208 18.4742 196.165 18.4742C194.122 18.4742 192.526 19.1986 191.377 20.6476C190.271 22.0539 189.718 24.2913 189.718 27.3597V28.2546Z" fill="currentColor"/>
<path d="M216.188 44.7471H220.274V21.0311L216.188 20.2001V17.0039L228.509 14.4469V20.6476H228.828C229.126 19.8379 229.53 19.0708 230.041 18.3463C230.594 17.5792 231.254 16.9187 232.02 16.3647C232.828 15.768 233.743 15.2993 234.765 14.9583C235.786 14.6174 236.956 14.4469 238.276 14.4469C242.319 14.4469 245.191 15.491 246.894 17.5792C248.596 19.6248 249.447 22.7145 249.447 26.8483V44.7471H253.533V48.5826H237.19V44.7471H241.084V27.2318C241.084 24.7175 240.616 22.9063 239.68 21.7982C238.744 20.6476 237.233 20.0723 235.148 20.0723C234.339 20.0723 233.552 20.1788 232.786 20.3919C232.02 20.605 231.317 20.9459 230.679 21.4147C230.083 21.8409 229.594 22.3949 229.211 23.0767C228.828 23.7586 228.636 24.5683 228.636 25.5059V44.7471H232.53V48.5826H216.188V44.7471Z" fill="currentColor"/>
<path d="M271.489 49.3497C269.447 49.3497 267.595 48.9448 265.936 48.1351C264.319 47.3254 262.914 46.1748 261.723 44.6832C260.573 43.149 259.68 41.3165 259.041 39.1857C258.446 37.0123 258.148 34.5831 258.148 31.8983C258.148 29.2135 258.446 26.8057 259.041 24.6748C259.68 22.5014 260.573 20.6689 261.723 19.1773C262.914 17.6432 264.319 16.4712 265.936 15.6615C267.595 14.8518 269.447 14.4469 271.489 14.4469C273.915 14.4469 275.873 15.0222 277.362 16.1729C278.852 17.3235 279.916 18.6446 280.554 20.1362H280.873V6.58422L276.788 5.7532V2.55698L289.236 0V42.7655L293.322 43.5965V46.7927L280.873 49.3497V43.5965H280.554C279.916 45.1307 278.831 46.4731 277.299 47.6237C275.809 48.7744 273.873 49.3497 271.489 49.3497ZM274.234 44.1079C276.022 44.1079 277.575 43.5752 278.894 42.5098C280.214 41.4017 280.873 39.9102 280.873 38.035V25.7616C280.873 23.8864 280.214 22.4162 278.894 21.3508C277.575 20.2427 276.022 19.6887 274.234 19.6887C272.107 19.6887 270.383 20.4132 269.064 21.8622C267.744 23.3111 267.085 25.3567 267.085 27.9989V35.7977C267.085 38.4399 267.744 40.4855 269.064 41.9344C270.383 43.3834 272.107 44.1079 274.234 44.1079Z" fill="currentColor"/>
<path d="M313.688 49.3497C311.135 49.3497 308.858 48.9235 306.858 48.0712C304.9 47.2189 303.24 46.0256 301.879 44.4914C300.517 42.9146 299.474 41.0608 298.751 38.93C298.07 36.7566 297.729 34.3914 297.729 31.8344C297.729 29.1922 298.091 26.8057 298.814 24.6748C299.58 22.5014 300.644 20.6689 302.006 19.1773C303.368 17.6432 304.985 16.4712 306.858 15.6615C308.773 14.8518 310.879 14.4469 313.178 14.4469C315.476 14.4469 317.54 14.8305 319.37 15.5976C321.242 16.322 322.817 17.3661 324.094 18.7299C325.413 20.0936 326.413 21.7343 327.094 23.652C327.817 25.5272 328.179 27.6367 328.179 29.9806V31.9622H306.73V34.2635C306.73 37.3319 307.517 39.6971 309.092 41.3591C310.709 42.9785 312.816 43.7883 315.412 43.7883C317.795 43.7883 319.71 43.2555 321.157 42.1901C322.604 41.1247 323.668 39.8036 324.349 38.2268L327.477 40.1446C327.094 41.21 326.519 42.2967 325.753 43.4047C325.03 44.4701 324.094 45.4503 322.945 46.3452C321.838 47.2402 320.519 47.9646 318.987 48.5187C317.455 49.0727 315.688 49.3497 313.688 49.3497ZM306.73 28.2546H319.497V27.4236C319.497 24.3552 318.944 22.0966 317.838 20.6476C316.774 19.1986 315.22 18.4742 313.178 18.4742C311.135 18.4742 309.539 19.1986 308.39 20.6476C307.283 22.0539 306.73 24.2913 306.73 27.3597V28.2546Z" fill="currentColor"/>
<path d="M333.201 44.7471H337.286V21.0311L333.201 20.2001V17.0039L345.521 14.4469V20.6476H345.84C346.138 19.8379 346.543 19.0708 347.053 18.3463C347.606 17.5792 348.266 16.9187 349.032 16.3647C349.841 15.768 350.756 15.2993 351.777 14.9583C352.799 14.6174 353.969 14.4469 355.288 14.4469C359.331 14.4469 362.204 15.491 363.906 17.5792C365.608 19.6248 366.46 22.7145 366.46 26.8483V44.7471H370.545V48.5826H354.203V44.7471H358.097V27.2318C358.097 24.7175 357.629 22.9063 356.693 21.7982C355.756 20.6476 354.245 20.0723 352.16 20.0723C351.352 20.0723 350.564 20.1788 349.798 20.3919C349.032 20.605 348.33 20.9459 347.692 21.4147C347.096 21.8409 346.606 22.3949 346.223 23.0767C345.84 23.7586 345.649 24.5683 345.649 25.5059V44.7471H349.543V48.5826H333.201V44.7471Z" fill="currentColor"/>
<path d="M385.566 49.1579C383.055 49.1579 381.246 48.6252 380.139 47.5598C379.075 46.4944 378.544 44.8537 378.544 42.6376V19.3052H374.139V15.214H375.543C377.033 15.214 378.097 14.937 378.735 14.383C379.373 13.7864 379.927 12.9127 380.395 11.7621L382.693 6.20067H386.906V15.214H394.566V19.3052H386.906V44.6193H394.566V47.8794C393.885 48.2203 392.715 48.5187 391.055 48.7744C389.396 49.0301 387.566 49.1579 385.566 49.1579Z" fill="currentColor"/>
<path d="M114.233 106.282C111.594 106.282 109.466 105.814 107.849 104.876C106.274 103.896 105.189 102.852 104.593 101.744H104.338V105.515H97.7629V92.4747H104.338V95.2874C104.338 99.7195 107.402 101.936 113.53 101.936C116.68 101.936 118.999 101.296 120.489 100.018C121.978 98.7393 122.723 97.0133 122.723 94.8399C122.723 92.8796 122.17 91.3667 121.063 90.3013C119.999 89.2359 118.084 88.4049 115.318 87.8082L112.254 87.1051C110.126 86.6789 108.189 86.0823 106.445 85.3152C104.742 84.5481 103.274 83.5892 102.04 82.4386C100.848 81.2879 99.912 79.9242 99.2311 78.3474C98.5927 76.7706 98.2735 74.9168 98.2735 72.786C98.2735 70.9109 98.614 69.2062 99.2949 67.672C99.9759 66.0952 100.955 64.7528 102.231 63.6448C103.508 62.5368 105.061 61.6844 106.891 61.0878C108.721 60.4486 110.785 60.1289 113.084 60.1289C115.68 60.1289 117.744 60.5977 119.276 61.5353C120.85 62.4302 121.914 63.4104 122.468 64.4758H122.723V60.896H129.298V73.7448H122.723V70.9322C122.723 68.7161 121.957 67.0967 120.425 66.0739C118.893 65.0085 116.722 64.4758 113.913 64.4758C110.977 64.4758 108.807 65.115 107.402 66.3935C106.04 67.6294 105.359 69.1636 105.359 70.9961C105.359 73.0417 105.998 74.5972 107.274 75.6626C108.551 76.6854 110.7 77.5377 113.722 78.2196L116.595 78.7949C120.893 79.775 124.212 81.3305 126.553 83.4614C128.936 85.5922 130.128 88.6179 130.128 92.5386C130.128 94.5416 129.766 96.3741 129.043 98.0361C128.319 99.6982 127.255 101.147 125.851 102.383C124.489 103.619 122.829 104.578 120.872 105.26C118.914 105.941 116.701 106.282 114.233 106.282Z" fill="currentColor"/>
<path d="M152.037 102.063C154.335 102.063 156.038 101.36 157.144 99.9539C158.293 98.5475 158.868 96.5659 158.868 94.0089V83.6531C158.868 81.0962 158.293 79.1145 157.144 77.7082C156.038 76.3018 154.335 75.5987 152.037 75.5987C149.739 75.5987 148.016 76.3018 146.866 77.7082C145.76 79.1145 145.207 81.0962 145.207 83.6531V94.0089C145.207 96.5659 145.76 98.5475 146.866 99.9539C148.016 101.36 149.739 102.063 152.037 102.063ZM152.037 106.282C149.654 106.282 147.484 105.899 145.526 105.132C143.611 104.322 141.951 103.171 140.547 101.68C139.185 100.146 138.121 98.3131 137.355 96.1823C136.589 94.0089 136.206 91.5585 136.206 88.831C136.206 86.1036 136.589 83.6744 137.355 81.5436C138.121 79.3702 139.185 77.5377 140.547 76.0461C141.951 74.5119 143.611 73.3613 145.526 72.5942C147.484 71.7845 149.654 71.3796 152.037 71.3796C154.42 71.3796 156.57 71.7845 158.485 72.5942C160.442 73.3613 162.102 74.5119 163.464 76.0461C164.868 77.5377 165.954 79.3702 166.72 81.5436C167.486 83.6744 167.869 86.1036 167.869 88.831C167.869 91.5585 167.486 94.0089 166.72 96.1823C165.954 98.3131 164.868 100.146 163.464 101.68C162.102 103.171 160.442 104.322 158.485 105.132C156.57 105.899 154.42 106.282 152.037 106.282Z" fill="currentColor"/>
<path d="M189.569 106.282C186.973 106.282 184.675 105.856 182.675 105.004C180.717 104.109 179.057 102.894 177.695 101.36C176.376 99.7834 175.355 97.9296 174.631 95.7988C173.95 93.6254 173.61 91.2815 173.61 88.7671C173.61 86.0396 174.035 83.5892 174.887 81.4158C175.738 79.2423 176.908 77.4312 178.398 75.9822C179.887 74.4906 181.653 73.3613 183.696 72.5942C185.739 71.7845 187.952 71.3796 190.335 71.3796C194.123 71.3796 197.059 72.168 199.144 73.7448C201.23 75.3216 202.272 77.3246 202.272 79.7537C202.272 81.2879 201.847 82.5025 200.996 83.3974C200.187 84.2924 199.038 84.7399 197.549 84.7399C196.059 84.7399 194.91 84.335 194.101 83.5253C193.335 82.7156 192.952 81.6715 192.952 80.393C192.952 79.3702 193.208 78.4966 193.718 77.7721C194.272 77.0476 194.931 76.5149 195.697 76.174V75.8543C195.229 75.6413 194.655 75.4708 193.974 75.343C193.335 75.2151 192.463 75.1512 191.356 75.1512C188.675 75.1512 186.547 76.0461 184.973 77.836C183.398 79.6259 182.611 82.055 182.611 85.1234V91.1962C182.611 94.222 183.334 96.5659 184.781 98.2279C186.228 99.8899 188.228 100.721 190.782 100.721C193.208 100.721 195.123 100.167 196.527 99.0589C197.974 97.9509 199.059 96.6085 199.783 95.0317L202.847 96.9494C202.464 98.0148 201.911 99.1015 201.187 100.21C200.506 101.318 199.613 102.319 198.506 103.214C197.442 104.109 196.165 104.855 194.676 105.451C193.186 106.005 191.484 106.282 189.569 106.282Z" fill="currentColor"/>
<path d="M215.635 66.841C214.06 66.841 212.826 66.3935 211.932 65.4986C211.081 64.6037 210.655 63.4317 210.655 61.9827V61.6631C210.655 60.2142 211.081 59.0422 211.932 58.1473C212.826 57.2523 214.06 56.8049 215.635 56.8049C217.209 56.8049 218.422 57.2523 219.273 58.1473C220.167 59.0422 220.614 60.2142 220.614 61.6631V61.9827C220.614 63.4317 220.167 64.6037 219.273 65.4986C218.422 66.3935 217.209 66.841 215.635 66.841ZM207.4 101.68H211.485V77.9639L207.4 77.1328V73.9366L219.848 71.3796V101.68H223.933V105.515H207.4V101.68Z" fill="currentColor"/>
<path d="M244.304 106.282C241.75 106.282 239.473 105.856 237.473 105.004C235.516 104.152 233.856 102.958 232.494 101.424C231.132 99.8473 230.089 97.9935 229.366 95.8627C228.685 93.6893 228.345 91.3241 228.345 88.7671C228.345 86.1249 228.706 83.7384 229.43 81.6076C230.196 79.4341 231.26 77.6016 232.622 76.1101C233.983 74.5759 235.601 73.4039 237.473 72.5942C239.388 71.7845 241.495 71.3796 243.793 71.3796C246.091 71.3796 248.155 71.7632 249.985 72.5303C251.858 73.2548 253.432 74.2989 254.709 75.6626C256.028 77.0263 257.028 78.667 257.709 80.5848C258.433 82.4599 258.795 84.5694 258.795 86.9133V88.8949H237.345V91.1962C237.345 94.2646 238.133 96.6298 239.707 98.2918C241.325 99.9113 243.431 100.721 246.027 100.721C248.41 100.721 250.326 100.188 251.773 99.1229C253.219 98.0574 254.283 96.7363 254.964 95.1595L258.092 97.0773C257.709 98.1427 257.135 99.2294 256.369 100.337C255.645 101.403 254.709 102.383 253.56 103.278C252.453 104.173 251.134 104.897 249.602 105.451C248.07 106.005 246.304 106.282 244.304 106.282ZM237.345 85.1873H250.113V84.3563C250.113 81.2879 249.56 79.0293 248.453 77.5803C247.389 76.1314 245.836 75.4069 243.793 75.4069C241.75 75.4069 240.154 76.1314 239.005 77.5803C237.899 78.9867 237.345 81.224 237.345 84.2924V85.1873Z" fill="currentColor"/>
<path d="M274.413 106.091C271.902 106.091 270.093 105.558 268.987 104.493C267.923 103.427 267.391 101.786 267.391 99.5703V76.2379H262.986V72.1467H264.391C265.88 72.1467 266.944 71.8697 267.582 71.3157C268.221 70.7191 268.774 69.8455 269.242 68.6948L271.54 63.1334H275.754V72.1467H283.414V76.2379H275.754V101.552H283.414V104.812C282.733 105.153 281.563 105.451 279.903 105.707C278.243 105.963 276.413 106.091 274.413 106.091Z" fill="currentColor"/>
<path d="M292.804 119.067C290.378 119.067 288.527 118.471 287.25 117.277C285.973 116.127 285.335 114.72 285.335 113.058C285.335 111.652 285.718 110.544 286.484 109.734C287.293 108.967 288.399 108.584 289.804 108.584C291.123 108.584 292.144 108.989 292.868 109.798C293.634 110.608 294.017 111.609 294.017 112.803C294.017 113.399 293.889 113.932 293.634 114.401C293.421 114.912 293.187 115.274 292.931 115.488L292.995 115.871C293.208 115.914 293.549 115.935 294.017 115.935C296.23 115.935 298.209 113.719 299.953 109.287L300.847 107.049L288.527 75.9822H285.399V72.1467H301.294V75.9822H297.4L304.741 96.8216H305.06L312.402 75.9822H308.508V72.1467H320.253V75.9822H317.189L303.784 109.543C303.316 110.693 302.762 111.844 302.124 112.994C301.528 114.145 300.783 115.168 299.89 116.063C299.039 116.958 298.017 117.682 296.826 118.236C295.676 118.79 294.336 119.067 292.804 119.067Z" fill="currentColor"/>
<path d="M353.832 102.063C356.13 102.063 357.833 101.36 358.939 99.9539C360.088 98.5475 360.663 96.5659 360.663 94.0089V83.6531C360.663 81.0962 360.088 79.1145 358.939 77.7082C357.833 76.3018 356.13 75.5987 353.832 75.5987C351.534 75.5987 349.811 76.3018 348.662 77.7082C347.555 79.1145 347.002 81.0962 347.002 83.6531V94.0089C347.002 96.5659 347.555 98.5475 348.662 99.9539C349.811 101.36 351.534 102.063 353.832 102.063ZM353.832 106.282C351.449 106.282 349.279 105.899 347.321 105.132C345.406 104.322 343.746 103.171 342.342 101.68C340.98 100.146 339.916 98.3131 339.15 96.1823C338.384 94.0089 338.001 91.5585 338.001 88.831C338.001 86.1036 338.384 83.6744 339.15 81.5436C339.916 79.3702 340.98 77.5377 342.342 76.0461C343.746 74.5119 345.406 73.3613 347.321 72.5942C349.279 71.7845 351.449 71.3796 353.832 71.3796C356.216 71.3796 358.365 71.7845 360.28 72.5942C362.237 73.3613 363.897 74.5119 365.259 76.0461C366.663 77.5377 367.749 79.3702 368.515 81.5436C369.281 83.6744 369.664 86.1036 369.664 88.831C369.664 91.5585 369.281 94.0089 368.515 96.1823C367.749 98.3131 366.663 100.146 365.259 101.68C363.897 103.171 362.237 104.322 360.28 105.132C358.365 105.899 356.216 106.282 353.832 106.282Z" fill="currentColor"/>
<path d="M374.593 101.68H378.679V76.2379H374.593V72.1467H378.679V68.8227C378.679 65.0724 379.828 62.1532 382.126 60.065C384.466 57.9768 387.637 56.9327 391.637 56.9327C394.446 56.9327 396.532 57.5293 397.893 58.7226C399.298 59.9159 400 61.3222 400 62.9416C400 64.2627 399.638 65.3281 398.915 66.1378C398.191 66.9049 397.212 67.2885 395.978 67.2885C394.702 67.2885 393.723 66.9262 393.042 66.2018C392.361 65.4773 392.02 64.6036 392.02 63.5809C392.02 62.7711 392.191 62.1319 392.531 61.6631C392.872 61.1943 393.255 60.8534 393.68 60.6403V60.3207C393.467 60.2781 393.191 60.2568 392.85 60.2568C392.552 60.2142 392.255 60.1929 391.957 60.1929C388.68 60.1929 387.041 62.5794 387.041 67.3524V72.1467H393.68V76.2379H387.041V101.68H392.403V105.515H374.593V101.68Z" fill="currentColor"/>
<path d="M53.4879 158.613H58.0202V121.664H53.4879V117.829H71.4897V121.664H66.9573V140.714H67.2765L74.1708 133.107L84.7038 121.664H80.0438V117.829H95.1092V121.664H90.5129L78.4479 134.449L93.3856 158.613H97.4073V162.448H78.8309V158.613H83.0441L72.3196 140.586L66.9573 146.211V158.613H71.4897V162.448H53.4879V158.613Z" fill="currentColor"/>
<path d="M100.36 158.613H104.446V134.897L100.36 134.066V130.869L112.681 128.312V134.513H113C113.298 133.703 113.702 132.936 114.213 132.212C114.766 131.445 115.426 130.784 116.192 130.23C117 129.633 117.915 129.165 118.937 128.824C119.958 128.483 121.128 128.312 122.448 128.312C126.491 128.312 129.363 129.356 131.065 131.445C132.768 133.49 133.619 136.58 133.619 140.714V158.613H137.704V162.448H121.362V158.613H125.256V141.097C125.256 138.583 124.788 136.772 123.852 135.664C122.916 134.513 121.405 133.938 119.32 133.938C118.511 133.938 117.724 134.044 116.958 134.257C116.192 134.47 115.489 134.811 114.851 135.28C114.255 135.706 113.766 136.26 113.383 136.942C113 137.624 112.808 138.434 112.808 139.371V158.613H116.702V162.448H100.36V158.613Z" fill="currentColor"/>
<path d="M157.96 158.996C160.258 158.996 161.96 158.293 163.066 156.887C164.215 155.48 164.79 153.499 164.79 150.942V140.586C164.79 138.029 164.215 136.047 163.066 134.641C161.96 133.235 160.258 132.531 157.96 132.531C155.661 132.531 153.938 133.235 152.789 134.641C151.682 136.047 151.129 138.029 151.129 140.586V150.942C151.129 153.499 151.682 155.48 152.789 156.887C153.938 158.293 155.661 158.996 157.96 158.996ZM157.96 163.215C155.576 163.215 153.406 162.832 151.448 162.064C149.533 161.255 147.873 160.104 146.469 158.613C145.107 157.078 144.043 155.246 143.277 153.115C142.511 150.942 142.128 148.491 142.128 145.764C142.128 143.036 142.511 140.607 143.277 138.476C144.043 136.303 145.107 134.47 146.469 132.979C147.873 131.445 149.533 130.294 151.448 129.527C153.406 128.717 155.576 128.312 157.96 128.312C160.343 128.312 162.492 128.717 164.407 129.527C166.365 130.294 168.024 131.445 169.386 132.979C170.791 134.47 171.876 136.303 172.642 138.476C173.408 140.607 173.791 143.036 173.791 145.764C173.791 148.491 173.408 150.942 172.642 153.115C171.876 155.246 170.791 157.078 169.386 158.613C168.024 160.104 166.365 161.255 164.407 162.064C162.492 162.832 160.343 163.215 157.96 163.215Z" fill="currentColor"/>
<path d="M179.383 132.915H176.318V129.079H192.022V132.915H187.937L193.235 154.138H193.554L200.768 129.079H207.534L214.748 154.138H215.067L220.366 132.915H216.28V129.079H227.834V132.915H224.77L216.216 162.448H209.705L202.236 138.348H201.917L194.448 162.448H187.937L179.383 132.915Z" fill="currentColor"/>
<path d="M230.823 158.613H234.909V120.45L230.823 119.619V116.422L243.271 113.865V158.613H247.357V162.448H230.823V158.613Z" fill="currentColor"/>
<path d="M267.744 163.215C265.19 163.215 262.913 162.789 260.913 161.937C258.955 161.084 257.296 159.891 255.934 158.357C254.572 156.78 253.529 154.926 252.806 152.795C252.125 150.622 251.784 148.257 251.784 145.7C251.784 143.058 252.146 140.671 252.87 138.54C253.636 136.367 254.7 134.534 256.061 133.043C257.423 131.509 259.041 130.337 260.913 129.527C262.828 128.717 264.935 128.312 267.233 128.312C269.531 128.312 271.595 128.696 273.425 129.463C275.298 130.187 276.872 131.232 278.149 132.595C279.468 133.959 280.468 135.6 281.149 137.517C281.873 139.393 282.234 141.502 282.234 143.846V145.828H260.785V148.129C260.785 151.197 261.573 153.563 263.147 155.225C264.765 156.844 266.871 157.654 269.467 157.654C271.85 157.654 273.765 157.121 275.212 156.056C276.659 154.99 277.723 153.669 278.404 152.092L281.532 154.01C281.149 155.075 280.575 156.162 279.809 157.27C279.085 158.336 278.149 159.316 277 160.211C275.893 161.106 274.574 161.83 273.042 162.384C271.51 162.938 269.744 163.215 267.744 163.215ZM260.785 142.12H273.553V141.289C273.553 138.221 272.999 135.962 271.893 134.513C270.829 133.064 269.276 132.34 267.233 132.34C265.19 132.34 263.594 133.064 262.445 134.513C261.339 135.919 260.785 138.157 260.785 141.225V142.12Z" fill="currentColor"/>
<path d="M301.226 163.215C299.183 163.215 297.332 162.81 295.672 162.001C294.055 161.191 292.65 160.04 291.459 158.549C290.31 157.014 289.416 155.182 288.778 153.051C288.182 150.878 287.884 148.449 287.884 145.764C287.884 143.079 288.182 140.671 288.778 138.54C289.416 136.367 290.31 134.534 291.459 133.043C292.65 131.509 294.055 130.337 295.672 129.527C297.332 128.717 299.183 128.312 301.226 128.312C303.651 128.312 305.609 128.888 307.099 130.038C308.588 131.189 309.652 132.51 310.29 134.002H310.61V120.45L306.524 119.619V116.422L318.972 113.865V156.631L323.058 157.462V160.658L310.61 163.215V157.462H310.29C309.652 158.996 308.567 160.339 307.035 161.489C305.545 162.64 303.609 163.215 301.226 163.215ZM303.971 157.973C305.758 157.973 307.311 157.441 308.631 156.375C309.95 155.267 310.61 153.776 310.61 151.9V139.627C310.61 137.752 309.95 136.282 308.631 135.216C307.311 134.108 305.758 133.554 303.971 133.554C301.843 133.554 300.119 134.279 298.8 135.728C297.481 137.177 296.821 139.222 296.821 141.864V149.663C296.821 152.305 297.481 154.351 298.8 155.8C300.119 157.249 301.843 157.973 303.971 157.973Z" fill="currentColor"/>
<path d="M342.339 176C339.36 176 336.871 175.83 334.87 175.489C332.913 175.148 331.317 174.636 330.083 173.954C328.891 173.315 328.04 172.527 327.529 171.589C327.019 170.652 326.763 169.608 326.763 168.457C326.763 166.837 327.465 165.495 328.87 164.43C330.274 163.364 331.934 162.661 333.849 162.32V162.064C332.402 161.724 331.253 161.042 330.402 160.019C329.551 158.953 329.125 157.611 329.125 155.992C329.125 154.117 329.742 152.646 330.976 151.581C332.211 150.515 333.7 149.791 335.445 149.407V149.088C333.317 148.235 331.657 147 330.466 145.38C329.317 143.761 328.742 141.736 328.742 139.307C328.742 137.56 329.061 136.005 329.7 134.641C330.381 133.277 331.317 132.127 332.509 131.189C333.743 130.251 335.19 129.548 336.849 129.079C338.552 128.568 340.424 128.312 342.467 128.312C344.127 128.312 345.638 128.483 346.999 128.824C348.361 129.165 349.617 129.655 350.766 130.294C350.936 127.907 351.51 126.182 352.489 125.116C353.511 124.008 354.894 123.454 356.639 123.454C357.788 123.454 358.745 123.795 359.511 124.477C360.277 125.116 360.66 126.054 360.66 127.29C360.66 128.398 360.299 129.314 359.575 130.038C358.852 130.72 357.873 131.061 356.639 131.061C355.958 131.061 355.319 130.933 354.724 130.678C354.128 130.422 353.638 130.038 353.255 129.527H353V131.828C353.979 132.681 354.766 133.703 355.362 134.897C356 136.09 356.319 137.56 356.319 139.307C356.319 141.055 355.979 142.631 355.298 144.038C354.617 145.401 353.66 146.552 352.425 147.49C351.234 148.427 349.787 149.152 348.085 149.663C346.382 150.132 344.51 150.366 342.467 150.366C340.977 150.366 339.488 150.196 337.998 149.855C337.275 150.196 336.679 150.665 336.211 151.261C335.743 151.815 335.509 152.433 335.509 153.115C335.509 154.053 335.849 154.756 336.53 155.225C337.254 155.651 338.424 155.864 340.041 155.864H347.51C351.893 155.864 355.043 156.673 356.958 158.293C358.873 159.912 359.83 162.128 359.83 164.941C359.83 168.393 358.384 171.099 355.49 173.059C352.596 175.02 348.212 176 342.339 176ZM342.531 146.467C346.191 146.467 348.021 144.421 348.021 140.33V138.412C348.021 134.321 346.191 132.276 342.531 132.276C338.871 132.276 337.041 134.321 337.041 138.412V140.33C337.041 144.421 338.871 146.467 342.531 146.467ZM333.658 167.818C333.658 170.716 336.083 172.165 340.935 172.165H344.701C347.382 172.165 349.404 171.76 350.766 170.95C352.17 170.14 352.872 168.947 352.872 167.37C352.872 165.879 352.362 164.835 351.34 164.238C350.361 163.684 348.829 163.407 346.744 163.407H336.147C335.296 163.918 334.658 164.515 334.232 165.197C333.849 165.921 333.658 166.795 333.658 167.818Z" fill="currentColor"/>
<path d="M378.896 163.215C376.343 163.215 374.066 162.789 372.066 161.937C370.108 161.084 368.448 159.891 367.086 158.357C365.725 156.78 364.682 154.926 363.958 152.795C363.277 150.622 362.937 148.257 362.937 145.7C362.937 143.058 363.299 140.671 364.022 138.54C364.788 136.367 365.852 134.534 367.214 133.043C368.576 131.509 370.193 130.337 372.066 129.527C373.981 128.717 376.087 128.312 378.385 128.312C380.684 128.312 382.748 128.696 384.578 129.463C386.45 130.187 388.025 131.232 389.301 132.595C390.621 133.959 391.621 135.6 392.302 137.517C393.025 139.393 393.387 141.502 393.387 143.846V145.828H371.938V148.129C371.938 151.197 372.725 153.563 374.3 155.225C375.917 156.844 378.024 157.654 380.62 157.654C383.003 157.654 384.918 157.121 386.365 156.056C387.812 154.99 388.876 153.669 389.557 152.092L392.685 154.01C392.302 155.075 391.727 156.162 390.961 157.27C390.238 158.336 389.301 159.316 388.152 160.211C387.046 161.106 385.727 161.83 384.195 162.384C382.662 162.938 380.896 163.215 378.896 163.215ZM371.938 142.12H384.705V141.289C384.705 138.221 384.152 135.962 383.045 134.513C381.982 133.064 380.428 132.34 378.385 132.34C376.343 132.34 374.747 133.064 373.598 134.513C372.491 135.919 371.938 138.157 371.938 141.225V142.12Z" fill="currentColor"/>
</svg>
